# xmcd
#
# Track frame offsets: 
#        150
#        6915
#        26993
#        48600
#        68808
#        89433
#        108933
#        134070
#        159998
#        177920
#        196500
#
# Disc length: 2925 seconds
#
# Revision: 0
# Processed by: cddbd v1.5.2PL0 Copyright (c) Steve Scherf et al.
# Submitted via: ExactAudioCopy v1.0b3
#
DISCID=920b6b0b
DTITLE=Trinh Vinh Trinh, Khanh Ly - Toi Oi Dung Tuyet Vong
DYEAR=1993
DGENRE=
TTITLE0=Khanh Ly - Loi gioi thieu
TTITLE1=Trinh Vinh Trinh - Xin tra no nguoi
TTITLE2=Trinh Cong Son - Con mat con lai
TTITLE3=Trinh Vinh Trinh - Con toi voi ai
TTITLE4=Khanh Ly - Van co em ben doi
TTITLE5=Trinh Vinh Trinh - Niu tay nghin trung
TTITLE6=Trinh Vinh Trinh - Ru tinh
TTITLE7=Khanh Ly - Doi goi em biet bao lan
TTITLE8=Trinh Vinh Trinh - Tuoi doi menh mong
TTITLE9=Trinh Cong Son - Nhu mot loi chia tay
TTITLE10=Trinh Vinh Trinh - Toi oi dung tuyet vong
EXTD=
EXTT0=
EXTT1=
EXTT2=
EXTT3=
EXTT4=
EXTT5=
EXTT6=
EXTT7=
EXTT8=
EXTT9=
EXTT10=
PLAYORDER=
